# xmcd
#
# Track frame offsets: 
#        150
#        15375
#        28402
#        44467
#        59592
#        83030
#        98530
#        114592
#        133652
#        151735
#        170410
#        187217
#        202575
#        219502
#        232947
#        248745
#
# Disc length: 3552 seconds
#
# Revision: 2
# Processed by: cddbd v1.5.2PL0 Copyright (c) Steve Scherf et al.
# Submitted via: ExactAudioCopyFreeDBPlugin 1.0
#
DISCID=cd0dde10
DTITLE=群星 - 華星雷射首選猛碟第一輯
DYEAR=1983
DGENRE=Pop
TTITLE0=梅艷芳 - 赤的疑惑
TTITLE1=梅艷芳 - 心債
TTITLE2=梅艷芳 - 交出我的心
TTITLE3=梅艷芳 - 迎風上路
TTITLE4=張國榮 - 風繼續吹
TTITLE5=張國榮 - 默默向上游
TTITLE6=張國榮 - 讓我飛
TTITLE7=張國榮 - 人生的鼓手
TTITLE8=陳美齡 - 再見十九歲
TTITLE9=陳美齡 - 珍珠淚
TTITLE10=陳美齡 - 舞會後
TTITLE11=陳美齡 - 香港香港
TTITLE12=陳潔靈 - 無言地等
TTITLE13=陳潔靈 - 我熱愛香港
TTITLE14=陳潔靈 - 拋開往日事
TTITLE15=陳潔靈 - 我仍是一往情心
EXTD=
EXTT0=
EXTT1=
EXTT2=
EXTT3=
EXTT4=
EXTT5=
EXTT6=
EXTT7=
EXTT8=
EXTT9=
EXTT10=
EXTT11=
EXTT12=
EXTT13=
EXTT14=
EXTT15=
PLAYORDER=
